<?xml version="1.0" encoding="UTF-8" standalone="no"?>
<!DOCTYPE svg PUBLIC "-//W3C//DTD SVG 1.1//EN" "http://www.w3.org/Graphics/SVG/1.1/DTD/svg11.dtd">
<svg width="100%" height="100%" viewBox="0 0 1024 1024" version="1.1" xmlns="http://www.w3.org/2000/svg" xmlns:xlink="http://www.w3.org/1999/xlink" xml:space="preserve" xmlns:serif="http://www.serif.com/" style="fill-rule:evenodd;clip-rule:evenodd;stroke-linejoin:round;stroke-miterlimit:2;">
    <g transform="matrix(2.33435,0,0,1.60791,-298.648,-60.2438)">
        <path d="M566.603,196.68L566.603,515.106C566.603,602.978 517.463,674.319 456.936,674.319L237.603,674.319C177.076,674.319 127.936,602.978 127.936,515.106L127.936,196.68C127.936,108.808 177.076,37.467 237.603,37.467L456.936,37.467C517.463,37.467 566.603,108.808 566.603,196.68ZM253.742,412.136C237.759,442.593 226.089,469.69 220.063,490.337C216.363,503.014 214.707,513.711 214.89,521.761C215.075,529.912 216.98,536.145 220.045,540.596C223.111,545.047 227.404,547.812 233.019,548.081C238.564,548.347 245.932,545.942 254.664,540.571C280.954,524.398 322.424,480.229 365.633,420.256C425.397,418.307 476.233,406.966 502.7,391.414C511.491,386.248 517.872,380.384 521.663,374.504C525.502,368.55 527.191,362.188 527.191,355.893C527.191,349.598 525.502,343.236 521.663,337.282C517.872,331.402 511.491,325.538 502.7,320.373C488.382,311.959 466.933,304.779 440.797,299.65C456.78,269.194 468.449,242.097 474.476,221.45C478.176,208.772 479.832,198.075 479.649,190.026C479.464,181.874 477.559,175.642 474.493,171.191C471.427,166.74 467.134,163.975 461.52,163.705C455.975,163.44 448.607,165.844 439.875,171.216C413.585,187.389 372.115,231.557 328.906,291.53C269.142,293.48 218.306,304.82 191.839,320.373C183.048,325.538 176.667,331.402 172.875,337.282C169.036,343.236 167.348,349.598 167.348,355.893C167.348,362.188 169.036,368.55 172.875,374.504C176.667,380.384 183.048,386.248 191.839,391.414C206.157,399.827 227.606,407.008 253.742,412.136ZM310.916,317.285C294.229,341.92 279.126,366.358 266.112,389.431C237.2,384.63 213.509,377.31 198.268,368.354C193.183,365.366 189.156,362.302 186.448,358.96C185.896,358.279 185.414,357.6 185.02,356.901C184.804,356.517 184.483,356.296 184.483,355.893C184.483,355.491 184.804,355.27 185.02,354.886C185.414,354.187 185.896,353.508 186.448,352.827C189.156,349.484 193.183,346.42 198.268,343.432C220.813,330.184 261.846,320.518 310.916,317.285ZM354.171,291.274C390.443,243.186 424.166,207.898 446.56,194.122C451.611,191.014 455.951,189.047 459.493,188.631C460.216,188.546 460.887,188.531 461.506,188.621C461.846,188.67 462.181,188.497 462.377,188.781C462.573,189.066 462.453,189.552 462.487,190.045C462.549,190.944 462.539,191.919 462.481,192.967C462.194,198.111 460.839,204.411 458.698,211.744C452.283,233.723 439.096,263.219 420.991,296.293C400.551,293.34 377.969,291.563 354.171,291.274ZM383.623,394.501C400.31,369.866 415.412,345.428 428.427,322.356C457.339,327.157 481.029,334.476 496.271,343.432C501.355,346.42 505.382,349.484 508.09,352.827C508.642,353.508 509.125,354.187 509.518,354.886C509.734,355.27 510.056,355.491 510.056,355.893C510.056,356.296 509.734,356.517 509.518,356.901C509.125,357.6 508.642,358.279 508.09,358.96C505.382,362.302 501.355,365.366 496.271,368.354C473.726,381.602 432.693,391.269 383.623,394.501ZM340.368,420.513C304.096,468.601 270.373,503.888 247.979,517.665C242.928,520.772 238.588,522.739 235.045,523.156C234.323,523.241 233.651,523.256 233.033,523.166C232.693,523.116 232.358,523.29 232.162,523.005C231.966,522.72 232.086,522.235 232.051,521.741C231.989,520.843 232,519.868 232.058,518.819C232.345,513.676 233.7,507.375 235.84,500.043C242.255,478.063 255.442,448.568 273.547,415.493C293.988,418.447 316.57,420.223 340.368,420.513ZM286.701,392.316C298.929,371.486 312.796,349.679 327.892,327.762C330.582,323.857 333.269,320.009 335.95,316.221C339.691,316.147 343.466,316.109 347.269,316.109C368.619,316.109 389.045,317.294 407.837,319.471C395.609,340.301 381.743,362.108 366.646,384.025C363.957,387.93 361.27,391.778 358.588,395.566C354.847,395.64 351.073,395.677 347.269,395.677C325.92,395.677 305.493,394.492 286.701,392.316Z"/>
    </g>
</svg>
