<?xml version="1.0" encoding="UTF-8" standalone="no"?>
<!DOCTYPE svg PUBLIC "-//W3C//DTD SVG 1.1//EN" "http://www.w3.org/Graphics/SVG/1.1/DTD/svg11.dtd">
<svg width="100%" height="100%" viewBox="0 0 1024 1024" version="1.1" xmlns="http://www.w3.org/2000/svg" xmlns:xlink="http://www.w3.org/1999/xlink" xml:space="preserve" xmlns:serif="http://www.serif.com/" style="fill-rule:evenodd;clip-rule:evenodd;stroke-linejoin:round;stroke-miterlimit:2;">
    <g transform="matrix(1.1357,1.1357,-1.1357,1.1357,537.288,-609.494)">
        <path d="M482.611,186.098C519.545,186.098 549.53,328.938 549.53,504.877C549.53,680.816 519.545,823.656 482.611,823.656C445.677,823.656 415.692,680.816 415.692,504.877C415.692,328.938 445.677,186.098 482.611,186.098ZM482.611,776.742C485.799,769.705 489.174,761.378 491.475,753.342C507.52,697.3 517.652,606.827 517.652,504.877C517.652,402.927 507.52,312.454 491.475,256.412C489.174,248.376 485.799,240.049 482.611,233.012C479.423,240.049 476.048,248.376 473.747,256.412C457.702,312.454 447.57,402.927 447.57,504.877C447.57,606.827 457.702,697.3 473.747,753.342C476.048,761.378 479.423,769.705 482.611,776.742Z"/>
    </g>
    <g transform="matrix(2.67473e-16,1.60613,-1.60613,2.67473e-16,1322.9,-263.135)">
        <path d="M482.611,186.098C519.545,186.098 549.53,328.938 549.53,504.877C549.53,680.816 519.545,823.656 482.611,823.656C445.677,823.656 415.692,680.816 415.692,504.877C415.692,328.938 445.677,186.098 482.611,186.098ZM482.611,776.742C485.799,769.705 489.174,761.378 491.475,753.342C507.52,697.3 517.652,606.827 517.652,504.877C517.652,402.927 507.52,312.454 491.475,256.412C489.174,248.376 485.799,240.049 482.611,233.012C479.423,240.049 476.048,248.376 473.747,256.412C457.702,312.454 447.57,402.927 447.57,504.877C447.57,606.827 457.702,697.3 473.747,753.342C476.048,761.378 479.423,769.705 482.611,776.742Z"/>
    </g>
</svg>
